<svg width="36" height="43" viewBox="0 0 36 43" fill="none" xmlns="http://www.w3.org/2000/svg">
<g id="Group">
<path id="Vector" d="M20.9939 16.5879H28.1125C29.1489 16.5879 29.992 15.7448 29.992 14.7084V6.27124C29.992 5.2349 29.1489 4.39173 28.1125 4.39173H20.9939C19.9576 4.39173 19.1144 5.23482 19.1144 6.27124V14.7084C19.1144 15.7447 19.9576 16.5879 20.9939 16.5879ZM20.9939 6.03993H28.1125C28.2401 6.03993 28.3439 6.14367 28.3439 6.27132V14.3954C27.8599 13.261 26.7931 12.4355 25.519 12.2959C26.0684 11.9743 26.4377 11.3783 26.4377 10.6957V10.0269C26.4377 9.00324 25.6079 8.17341 24.5841 8.17341C23.5605 8.17341 22.7307 9.00324 22.7307 10.0269V10.6957C22.7307 11.3742 23.0955 11.9674 23.6395 12.2903C22.3425 12.4129 21.2532 13.2456 20.7625 14.3954V6.27124C20.7625 6.14367 20.8663 6.03993 20.9939 6.03993Z" fill="#265791"/>
<path id="Vector_2" d="M16.1158 37.4896L18.1857 38.2299C18.3096 38.2743 18.4451 38.2743 18.569 38.2299L20.6389 37.4896C22.4425 36.8444 23.6462 35.1355 23.6462 33.22C23.6462 32.092 23.2585 30.9983 22.5482 30.1221C22.3078 29.8256 22.1766 29.4555 22.1766 29.0738C22.1766 28.7224 22.2879 28.3799 22.4944 28.0956L22.856 27.5979C23.0205 27.3714 22.996 27.0589 22.798 26.861L21.9937 26.0566C21.8415 25.9045 21.6164 25.8514 21.4123 25.9194C20.3787 26.2636 19.3684 26.1166 18.5601 25.8434C18.4415 25.8032 18.3137 25.8032 18.195 25.8434C17.3868 26.1166 16.3765 26.2635 15.3429 25.9194C15.1387 25.8514 14.9136 25.9044 14.7615 26.0566L13.9571 26.861C13.7592 27.0589 13.7346 27.3714 13.8991 27.5979L14.2607 28.0957C14.4673 28.3801 14.5785 28.7225 14.5785 29.0739C14.5785 29.4556 14.4474 29.8257 14.207 30.1222C13.4966 30.9984 13.1089 32.0921 13.1089 33.2201C13.1085 35.1355 14.3122 36.8444 16.1158 37.4896Z" fill="#265791"/>
<path id="Vector_3" d="M35.176 19.6386H33.3318V1.54488C33.3318 1.08976 32.9628 0.720825 32.5077 0.720825H10.8067C10.5881 0.720825 10.3786 0.807681 10.224 0.962192L3.6643 7.52186C3.50979 7.67637 3.42294 7.88593 3.42294 8.10455V15.8835H1.5787C1.12365 15.8835 0.754639 16.2524 0.754639 16.7076V38.8933C0.754639 41.1096 2.55776 42.9126 4.77406 42.9126H31.9807C34.197 42.9126 36 41.1096 36 38.8933V20.4627C36.0001 20.0076 35.6311 19.6386 35.176 19.6386ZM5.07105 8.45378H10.5597C10.889 8.45378 11.1559 8.18687 11.1559 7.85758V2.36894H31.6836V19.6386H13.14L10.3706 16.1914C10.2142 15.9968 9.97782 15.8835 9.72813 15.8835H5.07105V8.45378ZM34.352 38.8933C34.352 40.2008 33.2883 41.2645 31.9807 41.2645H4.77406C3.46653 41.2645 2.40284 40.2007 2.40284 38.8933V17.5316H9.33316L12.1026 20.9788C12.259 21.1735 12.4953 21.2868 12.745 21.2868H34.352V38.8933Z" fill="#265791"/>
<path id="Vector_4" d="M16.8107 13.6213H12.7848C12.3298 13.6213 11.9608 13.9902 11.9608 14.4453C11.9608 14.9004 12.3298 15.2694 12.7848 15.2694H16.8107C17.2657 15.2694 17.6347 14.9004 17.6347 14.4453C17.6347 13.9902 17.2658 13.6213 16.8107 13.6213Z" fill="#265791"/>
<path id="Vector_5" d="M17.6347 11.1491C17.6347 10.694 17.2657 10.325 16.8107 10.325H8.75912C8.30407 10.325 7.93506 10.694 7.93506 11.1491C7.93506 11.6042 8.30407 11.9731 8.75912 11.9731H16.8107C17.2658 11.9731 17.6347 11.6042 17.6347 11.1491Z" fill="#265791"/>
</g>
</svg>
