<svg width="42" height="42" viewBox="0 0 42 42" fill="none" xmlns="http://www.w3.org/2000/svg">
<g id="Criminal record" clip-path="url(#clip0_1_1156)">
<g id="Group">
<path id="Vector" d="M25.4296 33.6328C29.9601 33.6328 33.6328 29.9601 33.6328 25.4297C33.6328 20.8992 29.9601 17.2265 25.4296 17.2265C20.8992 17.2265 17.2265 20.8992 17.2265 25.4297C17.2265 29.9601 20.8992 33.6328 25.4296 33.6328Z" fill="#265791"/>
<path id="Vector_2" d="M41.2792 37.7988L34.5045 31.0242C33.6306 32.4365 32.4366 33.6306 31.0243 34.5045L37.7989 41.2792C38.76 42.2402 40.3182 42.2402 41.2792 41.2792C42.2402 40.3181 42.2402 38.7599 41.2792 37.7988Z" fill="#265791"/>
<g id="Group_2">
<path id="Vector_3" d="M8.20308 0.720782L0.720764 8.2031H8.20308V0.720782Z" fill="#265791"/>
<path id="Vector_4" d="M7.38277 21.3281H15.5864C16.2564 19.726 17.3064 18.3211 18.6234 17.2265H7.38277V21.3281Z" fill="#265791"/>
<path id="Vector_5" d="M14.8919 23.7891H6.15234C5.4728 23.7891 4.92188 23.2381 4.92188 22.5586V15.9961C4.92188 15.3165 5.4728 14.7656 6.15234 14.7656H25.4297C27.9026 14.7656 30.1814 15.6119 31.9922 17.0297V3.69141C31.9922 1.65596 30.3362 0 28.3008 0H10.6641V9.43359C10.6641 10.1131 10.1131 10.6641 9.43359 10.6641H0V38.3086C0 40.344 1.65596 42 3.69141 42H28.3008C30.1335 42 31.6578 40.6572 31.9435 38.9041L28.6392 35.5998C27.6257 35.9203 26.5477 36.0938 25.4297 36.0938C22.8445 36.0938 20.4714 35.1688 18.6234 33.6328H6.15234C5.4728 33.6328 4.92188 33.0819 4.92188 32.4023C4.92188 31.7228 5.4728 31.1719 6.15234 31.1719H16.4471C15.9595 30.4118 15.5664 29.5858 15.2828 28.7109H6.15234C5.4728 28.7109 4.92188 28.16 4.92188 27.4805C4.92188 26.8009 5.4728 26.25 6.15234 26.25H14.7969C14.6846 25.0217 14.8919 23.7891 14.8919 23.7891ZM25.8398 12.3047H14.3555C13.6759 12.3047 13.125 11.7538 13.125 11.0742C13.125 10.3947 13.6759 9.84375 14.3555 9.84375H25.8398C26.5194 9.84375 27.0703 10.3947 27.0703 11.0742C27.0703 11.7538 26.5194 12.3047 25.8398 12.3047ZM25.8398 7.38281H14.3555C13.6759 7.38281 13.125 6.83189 13.125 6.15234C13.125 5.4728 13.6759 4.92188 14.3555 4.92188H25.8398C26.5194 4.92188 27.0703 5.4728 27.0703 6.15234C27.0703 6.83189 26.5194 7.38281 25.8398 7.38281Z" fill="#265791"/>
</g>
</g>
</g>
<defs>
<clipPath id="clip0_1_1156">
<rect width="42" height="42" fill="white"/>
</clipPath>
</defs>
</svg>
