<svg width="50" height="46" viewBox="0 0 50 46" fill="none" xmlns="http://www.w3.org/2000/svg">
<g id="Group 23">
<g id="Group 22">
<g id="Group">
<g id="Group_2">
<path id="Vector" d="M49.8208 33.9713L49.7211 33.5723H43.4541C42.6456 33.5723 41.99 32.9168 41.99 32.1082C41.99 31.2995 42.6456 30.6441 43.4541 30.6441H48.9892L48.9116 30.3339C48.0966 27.0683 45.1757 24.7878 41.8099 24.7878H38.3558L33.8603 18.431C33.1111 16.9341 31.6055 16.0033 29.9313 16.0033H26.4903V14.5392C26.4903 12.1172 24.52 10.1469 22.098 10.1469C19.6761 10.1469 17.5691 12.1172 17.5691 14.5392V16.0033H12.5349C10.516 16.0033 8.76303 17.3717 8.31705 19.1874L6.29303 24.7878H4.39224C1.97025 24.7878 -1.52588e-05 26.7581 -1.52588e-05 29.18V35.0364C-1.52588e-05 37.4585 1.97025 39.4286 4.39224 39.4286H5.85632C5.85632 42.6585 8.48282 45.285 11.7127 45.285C14.9425 45.285 17.569 42.6585 17.569 39.4286H33.2054C33.2054 42.6585 35.8319 45.285 39.0618 45.285C42.2916 45.285 44.9181 42.6585 44.9181 39.4286H45.5601C46.9212 39.4286 48.1838 38.8124 49.0216 37.7401C49.861 36.6663 50.1512 35.2923 49.8208 33.9713ZM11.7127 42.3569C10.0984 42.3569 8.78449 41.043 8.78449 39.4287C8.78449 37.8145 10.0984 36.5006 11.7127 36.5006C13.3269 36.5006 14.6408 37.8145 14.6408 39.4287C14.6408 41.043 13.3269 42.3569 11.7127 42.3569ZM20.6339 24.7878H9.40365L11.1136 20.0409C11.2781 19.3875 11.8614 18.9314 12.5349 18.9314C21.0239 18.9314 17.5982 18.9314 20.6339 18.9314V24.7878ZM23.562 24.7878V18.9315C25.3365 18.9315 27.5369 18.9315 29.9313 18.9315C30.4903 18.9315 30.9921 19.2417 31.3539 19.9295L34.7754 24.7878H23.562ZM39.0619 42.3569C37.4476 42.3569 36.1337 41.043 36.1337 39.4287C36.1337 37.8145 37.4476 36.5006 39.0619 36.5006C40.6761 36.5006 41.99 37.8145 41.99 39.4287C41.99 41.043 40.6761 42.3569 39.0619 42.3569Z" fill="#265791"/>
</g>
</g>
<g id="Group_3">
<g id="Group_4">
<path id="Vector_2" d="M21.176 2.47955e-05C20.3668 2.47955e-05 19.7119 0.654892 19.7119 1.46411V4.39228C19.7119 5.2015 20.3668 5.85636 21.176 5.85636C21.9852 5.85636 22.6401 5.2015 22.6401 4.39228V1.46421C22.6401 0.654892 21.9852 2.47955e-05 21.176 2.47955e-05Z" fill="#265791"/>
</g>
</g>
<g id="Group_5">
<g id="Group_6">
<path id="Vector_3" d="M30.9957 3.35718C30.4239 2.78534 29.4973 2.78534 28.9255 3.35718L25.9972 6.28535C25.4254 6.85719 25.4254 7.78378 25.9972 8.35572C26.2832 8.64168 26.6578 8.78472 27.0323 8.78472C27.4067 8.78472 27.7816 8.64159 28.0675 8.35572L30.9956 5.42755C31.5676 4.85571 31.5676 3.92912 30.9957 3.35718Z" fill="#265791"/>
</g>
</g>
<g id="Group_7">
<g id="Group_8">
<path id="Vector_4" d="M16.3548 6.28537L13.4266 3.3572C12.8548 2.78526 11.9283 2.78526 11.3563 3.3572C10.7845 3.92904 10.7845 4.85563 11.3563 5.42756L14.2845 8.35573C14.5705 8.6417 14.9451 8.78473 15.3196 8.78473C15.6941 8.78473 16.0688 8.6417 16.3547 8.35573C16.9267 7.78389 16.9267 6.8573 16.3548 6.28537Z" fill="#265791"/>
</g>
</g>
</g>
</g>
</svg>
