<svg width="34" height="45" viewBox="0 0 34 45" fill="none" xmlns="http://www.w3.org/2000/svg">
<g id="Group">
<path id="Vector" d="M0 38.0103V44.6359H7.84615V39.318H5.23077V31.6041C2.25002 32.2117 0 34.853 0 38.0103Z" fill="#265791"/>
<path id="Vector_2" d="M7.84615 31.4718H10.4615V36.7026H7.84615V31.4718Z" fill="#265791"/>
<path id="Vector_3" d="M15.6923 31.4718H13.0769V39.3179H10.4615V44.6359H15.6923V31.4718Z" fill="#265791"/>
<path id="Vector_4" d="M34 38.0103C34 34.4051 31.0667 31.4718 27.4615 31.4718H18.3077V44.6359H34V38.0103Z" fill="#265791"/>
<path id="Vector_5" d="M26.1538 19.6154V17.3302C24.067 18.75 20.8829 19.6154 17 19.6154C13.1171 19.6154 9.93297 18.75 7.84615 17.3302V19.6154C7.84615 24.6623 11.9531 28.8564 17 28.8564C22.0469 28.8564 26.1538 24.6623 26.1538 19.6154Z" fill="#265791"/>
<path id="Vector_6" d="M7.84615 13.0769C7.84615 15.2436 11.9445 17 17 17C22.0555 17 26.1538 15.2436 26.1538 13.0769H7.84615Z" fill="#265791"/>
<path id="Vector_7" d="M17.1583 9.76174C17.816 9.10406 18.2119 8.25484 18.2923 7.3392L17 6.69293L15.7076 7.33911C15.7881 8.25476 16.184 9.10397 16.8417 9.76165L17 9.91997L17.1583 9.76174Z" fill="#265791"/>
<path id="Vector_8" d="M5.23077 7.84615C5.23077 8.88071 5.53084 9.73185 5.98583 10.4615H14.0911C13.4392 9.42907 13.0769 8.23803 13.0769 6.98674V5.73013L17 3.76859L20.9231 5.73013V6.98674C20.9231 8.23811 20.5608 9.42907 19.9089 10.4615H28.0142C28.4692 9.73185 28.7692 8.88071 28.7692 7.84615C28.7692 3.44673 23.5997 0 17 0C10.4002 0 5.23077 3.44673 5.23077 7.84615Z" fill="#265791"/>
</g>
</svg>
